<?xml version="1.0" encoding="UTF-8"?>
<svg version="1.1" xmlns="http://www.w3.org/2000/svg" viewBox="405 278 711 378">
<path d="M0 0 C-0.50092163 1.18807251 -0.50092163 1.18807251 -1.01196289 2.40014648 C-9.74605594 23.15438364 -18.27034239 43.99028233 -26.6875 64.875 C-27.0633876 65.80756622 -27.0633876 65.80756622 -27.4468689 66.75897217 C-33.62413415 82.08633484 -39.77609033 97.42358538 -45.89233398 112.77539062 C-51.80179346 127.56824368 -57.90827287 142.28149605 -64 157 C-65.62394459 153.99093912 -66.64429664 151.06704675 -67.55078125 147.7734375 C-67.83477783 146.75000244 -68.11877441 145.72656738 -68.41137695 144.67211914 C-68.70874756 143.58406982 -69.00611816 142.49602051 -69.3125 141.375 C-69.9374959 139.11067595 -70.56249593 136.84635304 -71.1875 134.58203125 C-71.49429688 133.46521973 -71.80109375 132.3484082 -72.1171875 131.19775391 C-72.90018709 128.36154576 -73.69558873 125.52941302 -74.5 122.69921875 C-76.63293569 115.17846287 -78.63282908 107.70587243 -80 100 C-86.9356895 105.37898163 -93.22196766 111.07607283 -99.36083984 117.32958984 C-102.83385112 120.86081382 -106.39844908 124.18736243 -110.17578125 127.39453125 C-112.91925926 129.80902688 -115.44082802 132.43210799 -118.00390625 135.03515625 C-119.92107177 136.92230744 -121.89575322 138.68685375 -123.9375 140.4375 C-126.92801716 143.00665271 -129.73116684 145.69317256 -132.5 148.5 C-135.86114482 151.9071879 -139.33701203 155.07458174 -142.96875 158.1875 C-145.23638572 160.2109288 -147.3657695 162.33653347 -149.5 164.5 C-152.86114482 167.9071879 -156.33701203 171.07458174 -159.96875 174.1875 C-162.23638572 176.2109288 -164.3657695 178.33653347 -166.5 180.5 C-169.86114482 183.9071879 -173.33701203 187.07458174 -176.96875 190.1875 C-180.03974317 192.92777083 -182.88786876 195.87946902 -185.77734375 198.80859375 C-188.4270144 201.42101068 -191.21172803 203.83302621 -194.03515625 206.25390625 C-196.10820324 208.09615675 -198.05435802 210.02401662 -200 212 C-202.44663437 214.47963329 -204.92107774 216.85440376 -207.5625 219.125 C-212.21821549 223.13256686 -216.68072446 227.33904386 -221.1628418 231.53808594 C-225.21670851 235.33574548 -229.28605899 239.11515788 -233.375 242.875 C-238.56868567 247.65876509 -243.72852284 252.47799807 -248.875 257.3125 C-249.9276001 258.29935791 -249.9276001 258.29935791 -251.00146484 259.30615234 C-254.30364479 262.41357827 -257.56679564 265.54776877 -260.76171875 268.765625 C-263.07592011 271.09592458 -265.42410886 273.32009171 -267.9375 275.4375 C-270.74576347 277.85617779 -273.39970593 280.35899683 -276 283 C-278.55990134 285.59982183 -281.1677954 288.06268398 -283.9375 290.4375 C-286.92801716 293.00665271 -289.73116684 295.69317256 -292.5 298.5 C-295.22829407 301.26560408 -297.98516834 303.91287031 -300.9375 306.4375 C-305.02778779 309.94229928 -308.7670907 313.75198614 -312.55078125 317.58203125 C-315.30479848 320.30090951 -318.17754131 322.82648472 -321.12109375 325.3359375 C-323.67491526 327.597742 -326.02015013 330.03836312 -328.359375 332.51953125 C-330.98812639 334.89166643 -333.34172413 335.88297318 -336.8125 336.5 C-341.6175491 335.74626681 -344.10229629 333.86981421 -347 330 C-347.85229492 327.37060547 -347.85229492 327.37060547 -348.48046875 324.3046875 C-348.72611572 323.14461182 -348.9717627 321.98453613 -349.22485352 320.78930664 C-349.48065186 319.53883545 -349.7364502 318.28836426 -350 317 C-350.42470524 315.05258015 -350.84949348 313.10517617 -351.277771 311.15853882 C-352.07059313 307.54544575 -352.84619986 303.92863614 -353.625 300.3125 C-353.97105141 298.70954138 -354.31716294 297.10659574 -354.66333008 295.50366211 C-356.56829425 286.67648867 -358.46191978 277.846925 -360.34765625 269.015625 C-361.12745329 265.36455109 -361.90738019 261.71350496 -362.6875 258.0625 C-362.87880493 257.16709503 -363.07010986 256.27169006 -363.26721191 255.34915161 C-365.74042605 243.78138857 -368.25651618 232.22664364 -370.9296875 220.703125 C-373.39661812 209.98705231 -375.59370126 199.20773897 -377.84765625 188.4453125 C-378.37557579 185.92967171 -378.90357283 183.41404718 -379.43164062 180.8984375 C-380.25082189 176.99494638 -381.06968392 173.09138981 -381.88696289 169.1875 C-382.68495981 165.37730878 -383.48489489 161.56752867 -384.28515625 157.7578125 C-384.52790787 156.59621613 -384.77065948 155.43461975 -385.02076721 154.23782349 C-386.23638666 148.45877623 -387.517872 142.71671716 -389 137 C-390.62856825 139.44285238 -391.82601537 141.63000718 -393.0390625 144.27734375 C-393.44624512 145.16446045 -393.85342773 146.05157715 -394.27294922 146.96557617 C-394.71912598 147.94631104 -395.16530273 148.9270459 -395.625 149.9375 C-396.1008252 150.97946533 -396.57665039 152.02143066 -397.06689453 153.0949707 C-402.44888216 164.92120279 -407.70931377 176.80165763 -412.9752655 188.67987061 C-416.89743767 197.52644504 -420.84615683 206.36065312 -424.8125 215.1875 C-428.77242396 224.01095474 -432.71940921 232.83984275 -436.625 241.6875 C-437.06706787 242.6863623 -437.50913574 243.68522461 -437.96459961 244.71435547 C-440.36913068 250.17907864 -442.69706433 255.66752034 -444.953125 261.1953125 C-445.44216309 262.38423096 -445.93120117 263.57314941 -446.43505859 264.7980957 C-447.37239288 267.08580798 -448.29784678 269.37843594 -449.20947266 271.67651367 C-453.21679057 281.43700993 -453.21679057 281.43700993 -458 284 C-461.5 284.25 -461.5 284.25 -465 283 C-470.18142598 275.80908186 -473.74075188 267.59342631 -477.5625 259.625 C-478.26743748 258.16342499 -478.97251717 256.70191857 -479.67773438 255.24047852 C-485.94112783 242.23211912 -492.02085872 229.14136726 -498 216 C-503.44555196 220.48123547 -508.23618934 225.30726386 -513 230.5 C-514.35051266 231.97211055 -515.70463961 233.44091417 -517.0625 234.90625 C-517.94615234 235.87014648 -517.94615234 235.87014648 -518.84765625 236.85351562 C-519.91306641 237.91602539 -519.91306641 237.91602539 -521 239 C-521.41316247 239.49439638 -521.82632494 239.98879276 -522.25200748 240.49817085 C-525.95994015 244.40468945 -528.90353597 245.43870803 -534.27061462 245.7215271 C-536.82092991 245.73887056 -539.37160127 245.72307981 -541.92163086 245.68115234 C-543.33151171 245.67945804 -544.74139785 245.68041353 -546.15127563 245.68380737 C-549.96319153 245.68552342 -553.77396627 245.6503391 -557.58561778 245.60836363 C-561.57472437 245.57076307 -565.56385939 245.56732397 -569.55311584 245.56021118 C-577.10027669 245.54158954 -584.64691379 245.49238942 -592.19384438 245.43211424 C-600.78869042 245.36496511 -609.38356195 245.33203907 -617.97860515 245.30194163 C-635.65269996 245.23928753 -653.32630782 245.13380526 -671 245 C-667.60736413 242.73824275 -665.88790597 242.60341622 -661.875 242.1875 C-651.5398219 240.97471167 -641.40076042 238.75520711 -631.21582031 236.66015625 C-626.31363092 235.65381552 -621.40717809 234.66918227 -616.5 233.6875 C-615.51443115 233.48995117 -614.5288623 233.29240234 -613.51342773 233.08886719 C-600.53388742 230.49515044 -587.54033485 227.97138784 -574.5458374 225.45379639 C-572.88151781 225.12866009 -571.21812812 224.79872594 -569.5557251 224.46392822 C-565.22656406 223.59656931 -560.90659775 222.82124823 -556.53808594 222.17797852 C-545.91730264 220.90718152 -545.91730264 220.90718152 -537.5546875 214.91015625 C-536.093862 212.56604352 -536.093862 212.56604352 -534.875 210.0625 C-533.85876786 208.33919609 -532.83921736 206.61784483 -531.81640625 204.8984375 C-531.34348145 204.05893555 -530.87055664 203.21943359 -530.38330078 202.35449219 C-528.45528298 199.07284664 -526.19877688 196.14411431 -523.8125 193.1875 C-520.50111505 188.96042661 -517.29389184 184.69042333 -514.1875 180.3125 C-513.78756836 179.74974365 -513.38763672 179.1869873 -512.97558594 178.60717773 C-511.09601863 175.95939791 -509.21925683 173.30963405 -507.34277344 170.65966797 C-505.58774043 168.18613479 -503.8256174 165.71777511 -502.0625 163.25 C-501.50651123 162.46278564 -500.95052246 161.67557129 -500.37768555 160.86450195 C-499.85215088 160.13062256 -499.32661621 159.39674316 -498.78515625 158.640625 C-498.31988525 157.98610352 -497.85461426 157.33158203 -497.37524414 156.65722656 C-496 155 -496 155 -493 153 C-489.5625 153.0625 -489.5625 153.0625 -486 154 C-482.48702968 157.6714824 -480.48265224 161.8578601 -478.46875 166.4609375 C-478.15095581 167.16973053 -477.83316162 167.87852356 -477.5057373 168.60879517 C-476.49691082 170.86118643 -475.49782073 173.1177142 -474.5 175.375 C-473.50090441 177.62453598 -472.4996431 179.87304704 -471.4942627 182.11978149 C-470.87141741 183.51269615 -470.25226481 184.90727044 -469.63757324 186.30380249 C-467.67488985 190.70648385 -465.44908168 194.8471801 -463 199 C-462.31427449 197.39997381 -461.62854929 195.7999475 -460.94282532 194.19992065 C-460.32864361 192.76683343 -459.71445686 191.33374837 -459.1002655 189.90066528 C-457.39127145 185.91307481 -455.68236954 181.92544489 -453.97363281 177.93774414 C-448.07607139 164.17495444 -448.07607139 164.17495444 -445.38671875 157.9140625 C-441.52120699 148.91283199 -437.68546643 139.89968038 -433.875 130.875 C-429.82838153 121.29131968 -425.7458491 111.72366287 -421.64303589 102.16394043 C-416.3476647 89.82549386 -411.06330929 77.48248439 -405.8125 65.125 C-405.52589508 64.45141449 -405.23929016 63.77782898 -404.94400024 63.08383179 C-401.77467773 55.63201674 -398.64614565 48.16619188 -395.59765625 40.6640625 C-395.04908296 39.31884329 -394.50049917 37.97362837 -393.9519043 36.62841797 C-392.92661156 34.11287553 -391.91312443 31.5935845 -390.90551758 29.07080078 C-390.44943115 27.94915527 -389.99334473 26.82750977 -389.5234375 25.671875 C-389.13075684 24.6931543 -388.73807617 23.71443359 -388.33349609 22.70605469 C-386.57070521 19.12883496 -384.64290439 15.82145219 -381 14 C-378.1875 13.5625 -378.1875 13.5625 -375 14 C-368.55591536 19.06320936 -367.74709995 27.41147278 -366 35 C-365.49310215 37.14084177 -364.9852096 39.28144816 -364.4765625 41.421875 C-362.62069973 49.27430332 -360.8069243 57.13620869 -359 65 C-358.83075012 65.73605469 -358.66150024 66.47210938 -358.48712158 67.23046875 C-351.62171475 97.09165574 -351.62171475 97.09165574 -348.75 110.25 C-347.40979669 116.36618764 -345.84435787 122.40055944 -344.19921875 128.44140625 C-340.1441601 143.62744097 -336.42504177 158.9695567 -333.41796875 174.39941406 C-332.37236129 179.64539068 -331.00499313 184.78314009 -329.60699463 189.94563293 C-327.58880916 197.44468884 -325.82389254 204.99979427 -324.0625 212.5625 C-323.71431144 214.04999525 -323.36600279 215.53746239 -323.01757812 217.02490234 C-320.293347 228.67150175 -317.62138137 240.3298118 -315 252 C-312.76800509 252.22618786 -312.76800509 252.22618786 -310.8984375 250.05859375 C-310.06570313 249.19363281 -309.23296875 248.32867188 -308.375 247.4375 C-305.33659205 244.33379675 -302.30784144 241.31504057 -299 238.5 C-294.92656519 235.01787024 -291.20964882 231.22444574 -287.4453125 227.4140625 C-284.70876521 224.71248706 -281.85020634 222.20921265 -278.9296875 219.7109375 C-276.24083452 217.32689376 -273.74522455 214.77183972 -271.25 212.1875 C-269.30817875 210.29961823 -267.32622813 208.52352085 -265.28125 206.75 C-260.90663127 202.95056262 -256.6985115 198.99202733 -252.5 195 C-247.67383985 190.41119199 -242.79483181 185.92190059 -237.76367188 181.55859375 C-235.5791412 179.62807827 -233.52959738 177.59204653 -231.5 175.5 C-228.09629724 172.04951094 -224.57561011 168.83362606 -220.8984375 165.6796875 C-218.44328731 163.50743528 -216.16935697 161.18222536 -213.87451172 158.84326172 C-212.06632643 157.0652207 -210.20379523 155.40295598 -208.28125 153.75 C-204.086851 150.10252906 -200.03349228 146.32371254 -196 142.5 C-194.50533448 141.08840808 -193.01053968 139.67695305 -191.515625 138.265625 C-190.76474609 137.55599609 -190.01386719 136.84636719 -189.24023438 136.11523438 C-181.03396996 128.36686091 -172.80269242 120.64501518 -164.5 113 C-154.18700667 103.49615277 -143.88632361 93.99657815 -134.03295898 84.01367188 C-130.69273387 80.64506614 -127.23454245 77.47797471 -123.625 74.40234375 C-121.64902936 72.69711909 -119.80707351 70.88236824 -118 69 C-123.94427671 66.23154665 -129.98981138 64.51307159 -136.3125 62.8125 C-145.72536102 60.22500174 -155.0982931 57.52992407 -164.4375 54.6875 C-166.12516479 54.18150269 -166.12516479 54.18150269 -167.84692383 53.6652832 C-168.8861499 53.34648193 -169.92537598 53.02768066 -170.99609375 52.69921875 C-172.37559204 52.27902466 -172.37559204 52.27902466 -173.78295898 51.8503418 C-176 51 -176 51 -178 49 C-169.61553804 46.2674122 -161.146411 43.94750466 -152.625 41.6875 C-143.25276916 39.19756205 -133.96931246 36.5120711 -124.71020508 33.63232422 C-116.24278252 31.02144408 -107.7037678 28.71489113 -99.12890625 26.484375 C-92.9546428 24.86245554 -86.92075068 23.00566993 -80.87817383 20.94848633 C-76.52732479 19.514688 -72.11708817 18.34977414 -67.6875 17.1875 C-59.97227919 15.12467406 -52.31762779 12.9203049 -44.6875 10.5625 C-36.28086321 7.96875472 -27.84644876 5.49887766 -19.375 3.125 C-18.31369873 2.8266626 -17.25239746 2.5283252 -16.15893555 2.22094727 C-3.72343681 -1.2411456 -3.72343681 -1.2411456 0 0 Z " fill="#FCFCFC" transform="translate(1096,299)"/>
</svg>